<?xml version="1.0" standalone="no"?>
<!DOCTYPE svg PUBLIC "-//W3C//DTD SVG 20010904//EN"
 "http://www.w3.org/TR/2001/REC-SVG-20010904/DTD/svg10.dtd">
<svg version="1.0" xmlns="http://www.w3.org/2000/svg"
 width="700.000000pt" height="700.000000pt" viewBox="0 0 700.000000 700.000000"
 preserveAspectRatio="xMidYMid meet">
<metadata>
Created by potrace 1.11, written by Peter Selinger 2001-2013
</metadata>
<g transform="translate(0.000000,700.000000) scale(0.100000,-0.100000)"
fill="#000000" stroke="none">
<path d="M3345 6783 c3 -120 8 -220 10 -223 2 -3 51 -4 109 -2 l106 3 0 220 0
219 -116 0 -117 0 8 -217z"/>
<path d="M3800 6968 c0 -13 -9 -111 -20 -218 -14 -149 -16 -196 -7 -202 7 -4
30 -8 52 -8 22 -1 63 -5 90 -10 28 -4 52 -6 54 -4 7 6 71 427 66 432 -5 5
-182 31 -217 32 -12 0 -18 -8 -18 -22z"/>
<path d="M2965 6963 c-49 -8 -91 -16 -93 -17 -3 -3 77 -428 82 -433 2 -2 45 3
97 12 52 8 98 15 102 15 5 0 6 19 3 43 -13 92 -46 372 -46 384 0 16 -29 15
-145 -4z"/>
<path d="M4260 6916 c0 -4 -20 -97 -45 -207 -25 -111 -45 -206 -45 -213 0 -15
188 -62 200 -50 4 5 33 98 65 208 45 155 54 200 44 206 -7 5 -51 18 -98 30
-47 11 -94 23 -103 26 -10 3 -18 3 -18 0z"/>
<path d="M2535 6869 c-55 -17 -103 -33 -107 -37 -5 -5 115 -406 126 -419 0 -1
46 11 101 27 84 23 99 31 97 46 -3 18 -73 301 -93 377 -5 20 -13 37 -17 36 -4
0 -52 -14 -107 -30z"/>
<path d="M4703 6763 c-3 -10 -37 -98 -75 -196 -38 -98 -68 -183 -66 -189 3 -8
190 -91 193 -85 6 8 165 385 167 395 2 9 -32 28 -92 52 -108 45 -118 47 -127
23z"/>
<path d="M2096 6710 c-49 -21 -93 -43 -98 -48 -5 -5 14 -56 43 -118 105 -227
132 -284 134 -284 4 0 190 82 193 85 7 6 -164 405 -173 404 -5 0 -50 -18 -99
-39z"/>
<path d="M5031 6399 c-56 -105 -101 -192 -99 -193 2 -2 42 -26 90 -54 63 -36
90 -47 96 -39 32 40 221 360 217 367 -7 11 -179 110 -192 110 -5 0 -56 -86
-112 -191z"/>
<path d="M1690 6499 c-47 -28 -90 -56 -97 -62 -9 -9 15 -53 100 -184 62 -95
117 -177 122 -182 7 -7 38 6 95 41 47 28 87 53 89 54 4 4 -212 384 -219 384
-3 0 -43 -23 -90 -51z"/>
<path d="M5410 6180 c-69 -93 -126 -175 -127 -182 -2 -10 140 -127 160 -132 3
0 52 58 109 129 57 72 118 150 136 172 l33 42 -68 54 c-37 29 -79 61 -93 70
l-25 16 -125 -169z"/>
<path d="M1345 6264 c-16 -14 -54 -46 -83 -71 l-52 -45 57 -67 c32 -38 96
-114 142 -169 l83 -101 57 44 c31 25 69 55 85 68 l30 24 -134 172 c-74 94
-139 171 -144 171 -6 0 -24 -12 -41 -26z"/>
<path d="M5738 5892 l-147 -157 73 -74 74 -74 33 27 c18 15 91 83 163 152
l131 124 -80 80 c-44 44 -84 80 -90 79 -5 0 -76 -71 -157 -157z"/>
<path d="M958 5910 c-40 -44 -73 -84 -73 -88 0 -13 314 -294 323 -290 5 2 39
36 77 76 l69 73 -155 155 c-84 85 -157 154 -161 154 -4 0 -40 -36 -80 -80z"/>
<path d="M6052 5586 c-83 -67 -159 -129 -167 -137 -13 -13 -8 -24 46 -94 34
-44 67 -80 73 -79 7 1 55 32 107 71 52 38 129 93 171 123 49 34 75 57 69 64
-4 6 -36 48 -70 94 -34 45 -65 82 -69 81 -4 0 -76 -56 -160 -123z"/>
<path d="M694 5597 c-17 -23 -47 -65 -68 -94 l-37 -52 180 -120 c99 -67 184
-121 188 -121 7 0 112 140 121 161 3 6 -340 270 -349 269 -2 -1 -18 -20 -35
-43z"/>
<path d="M6445 5314 c-11 -8 -87 -56 -170 -106 -82 -50 -154 -94 -159 -99 -7
-7 17 -57 76 -156 l19 -33 57 29 c31 16 115 61 187 100 71 39 134 72 139 74
13 4 -102 207 -117 207 -7 0 -21 -7 -32 -16z"/>
<path d="M447 5217 c-36 -61 -89 -169 -85 -172 8 -8 390 -196 392 -193 7 9 96
178 96 182 0 2 -24 18 -52 34 -29 16 -115 66 -190 110 l-137 80 -24 -41z"/>
<path d="M3344 5213 c3 -21 8 -83 11 -138 3 -55 8 -112 11 -126 5 -25 3 -26
-72 -38 -42 -7 -80 -9 -84 -4 -5 4 -23 74 -41 156 -28 129 -35 147 -52 147
-33 0 -197 -52 -197 -63 0 -5 23 -75 50 -155 28 -80 49 -146 48 -147 -2 -2
-36 -16 -76 -33 l-73 -30 -65 131 c-83 166 -78 160 -118 141 -76 -38 -156 -89
-156 -99 0 -6 38 -68 85 -138 47 -70 85 -129 85 -131 0 -6 -120 -96 -128 -96
-4 0 -54 54 -111 120 l-103 120 -59 -51 c-58 -50 -99 -95 -99 -108 0 -4 54
-53 120 -110 l120 -103 -53 -68 c-28 -38 -57 -67 -63 -66 -5 2 -65 43 -131 90
-67 47 -125 86 -130 86 -11 0 -105 -155 -107 -176 -1 -11 40 -37 129 -85 72
-38 134 -70 139 -72 7 -2 -35 -118 -60 -165 -1 -1 -64 22 -140 52 -76 30 -145
56 -153 58 -8 2 -19 -13 -28 -37 -23 -64 -52 -175 -46 -175 9 0 307 -71 310
-74 1 -1 -4 -40 -12 -87 -8 -46 -15 -84 -15 -85 0 0 -68 8 -151 19 -83 10
-157 16 -165 13 -11 -4 -14 -28 -14 -111 l0 -105 160 0 c183 0 166 11 173
-107 4 -73 23 -64 -183 -89 -74 -9 -136 -17 -137 -18 -5 -5 39 -202 47 -210 6
-6 68 7 160 34 83 23 152 41 154 39 5 -7 56 -162 53 -165 -1 -1 -68 -28 -149
-59 -82 -32 -148 -63 -147 -69 0 -6 21 -53 47 -103 l47 -92 143 81 c78 44 144
79 145 77 2 -2 23 -36 49 -75 l46 -71 -124 -87 c-68 -48 -126 -92 -130 -97 -3
-6 1 -20 9 -32 25 -39 118 -137 129 -137 6 0 59 47 118 105 58 58 110 105 114
105 5 0 34 -24 65 -52 l57 -53 -98 -125 c-54 -69 -96 -129 -95 -135 4 -10 166
-125 176 -125 3 0 42 57 86 127 44 70 83 131 86 135 4 7 104 -39 147 -67 1 -1
-28 -68 -64 -149 -37 -80 -64 -149 -61 -152 12 -12 191 -75 202 -70 6 2 31 72
55 156 34 120 46 150 58 145 8 -3 45 -13 81 -22 36 -9 67 -17 69 -18 1 -1 -11
-72 -26 -159 -16 -86 -25 -159 -21 -161 14 -9 209 -29 215 -22 4 3 9 77 12
164 l5 158 86 1 87 0 11 -159 c7 -87 14 -161 16 -164 7 -7 191 17 207 27 11 7
9 33 -10 137 -35 193 -37 182 40 204 36 10 70 18 75 19 6 0 32 -66 59 -146 27
-80 54 -148 61 -150 13 -5 162 50 189 69 15 11 10 26 -56 156 -40 80 -68 146
-62 148 5 2 39 21 76 42 l66 38 82 -128 c44 -71 86 -131 92 -135 10 -7 133 72
163 106 20 22 21 20 -122 184 l-69 78 61 59 c34 33 65 59 70 59 5 0 57 -48
117 -106 59 -58 114 -104 121 -102 18 6 137 151 134 163 -3 8 -69 58 -240 180
-17 12 -15 18 30 88 l48 75 135 -79 c74 -43 139 -78 143 -78 8 -1 97 176 97
193 0 6 -64 35 -143 65 -78 30 -145 57 -149 60 -4 4 4 43 19 87 l26 81 101
-29 c56 -16 127 -35 158 -42 l57 -14 15 67 c8 36 18 87 21 112 l7 45 -149 18
c-81 10 -154 20 -161 22 -11 3 -13 29 -10 114 l3 110 163 0 162 0 -1 58 c-1
63 -12 159 -21 167 -2 3 -75 -8 -162 -23 l-157 -28 -5 25 c-11 56 -25 117 -30
132 -4 14 23 24 151 60 91 25 155 48 155 55 0 16 -60 187 -69 197 -4 4 -71
-22 -149 -58 -79 -36 -144 -65 -147 -65 -5 0 -85 153 -82 156 1 1 63 37 137
79 74 43 137 79 139 81 5 4 -64 114 -97 154 l-29 34 -74 -57 c-41 -31 -98 -76
-127 -99 l-53 -41 -59 64 -59 64 114 113 c63 63 115 117 115 121 0 8 -144 134
-159 139 -5 2 -50 -50 -102 -115 -51 -65 -96 -122 -99 -126 -7 -8 -140 79
-140 92 0 4 4 11 9 17 10 10 151 253 151 260 0 2 -45 26 -100 54 l-100 50 -38
-82 c-21 -46 -51 -113 -67 -151 -22 -50 -33 -66 -45 -61 -8 3 -42 15 -75 27
-33 11 -61 20 -62 21 -1 1 18 71 43 156 24 85 41 157 36 161 -7 7 -109 33
-174 44 -43 8 -38 19 -69 -162 -12 -73 -25 -136 -28 -141 -3 -5 -41 -7 -84 -4
l-78 5 7 163 7 164 -117 0 -118 0 6 -37z"/>
<path d="M6580 4869 c-63 -28 -152 -67 -197 -86 -46 -20 -83 -39 -83 -42 0
-15 74 -191 81 -191 4 0 47 15 96 34 48 18 135 50 193 71 58 20 109 40 113 44
7 7 -64 196 -80 212 -5 5 -60 -15 -123 -42z"/>
<path d="M255 4822 c-13 -31 -75 -203 -75 -206 0 -10 413 -137 419 -130 11 13
75 184 70 188 -2 1 -80 33 -174 71 -93 37 -184 74 -201 81 -29 12 -33 12 -39
-4z"/>
<path d="M6643 4422 c-105 -31 -194 -60 -197 -63 -10 -9 37 -191 50 -196 10
-4 414 84 422 91 2 2 -9 54 -24 115 -21 83 -32 111 -43 110 -9 0 -102 -26
-208 -57z"/>
<path d="M106 4373 c-13 -49 -47 -206 -44 -208 6 -5 430 -87 432 -83 6 6 48
200 44 202 -7 6 -397 106 -411 106 -9 0 -18 -8 -21 -17z"/>
<path d="M6705 3991 c-99 -14 -179 -29 -179 -34 1 -4 5 -40 9 -80 11 -130 11
-129 58 -123 23 3 121 13 217 22 96 9 177 18 178 19 2 2 -2 53 -9 114 l-12
111 -41 -1 c-23 -1 -122 -13 -221 -28z"/>
<path d="M15 3853 c-3 -43 -8 -95 -11 -115 l-6 -38 39 0 c21 0 121 -7 223 -15
101 -7 185 -13 186 -12 1 1 5 50 9 108 l7 106 -103 12 c-57 7 -140 16 -183 21
-44 6 -96 10 -117 10 l-37 0 -7 -77z"/>
<path d="M6560 3486 c0 -40 -3 -100 -6 -133 l-7 -60 89 -6 c49 -4 151 -10 227
-13 l137 -7 0 147 0 146 -220 0 -220 0 0 -74z"/>
<path d="M112 3473 l-114 -4 4 -109 c1 -59 6 -111 10 -115 6 -6 429 14 436 20
2 2 0 51 -4 109 l-7 106 -106 -2 c-58 -1 -157 -4 -219 -5z"/>
<path d="M6516 2994 c-10 -58 -16 -107 -14 -108 5 -5 401 -76 420 -76 12 0 19
24 33 111 9 61 15 112 13 113 -1 2 -86 15 -188 30 -102 14 -199 29 -216 31
l-31 5 -17 -106z"/>
<path d="M235 3038 c-110 -16 -201 -31 -202 -32 -3 -3 36 -229 40 -233 2 -1
50 8 107 21 58 13 156 34 217 47 90 19 112 26 109 39 -3 8 -10 44 -16 80 -17
103 -19 110 -38 109 -9 0 -107 -14 -217 -31z"/>
<path d="M6422 2597 c-17 -56 -30 -102 -29 -103 1 0 95 -33 209 -72 l208 -71
35 111 c19 61 33 113 31 116 -4 4 -142 43 -332 95 l-91 25 -31 -101z"/>
<path d="M405 2629 c-77 -21 -170 -47 -207 -56 -38 -9 -68 -21 -68 -27 0 -23
66 -209 75 -212 10 -4 398 126 406 136 5 7 -54 200 -61 199 -3 0 -68 -18 -145
-40z"/>
<path d="M6284 2234 c-19 -42 -39 -85 -45 -95 -8 -17 10 -29 181 -114 104 -52
195 -95 201 -95 12 0 102 186 97 201 -3 9 -323 156 -377 174 -19 6 -26 -2 -57
-71z"/>
<path d="M488 2201 c-109 -47 -198 -90 -198 -96 0 -17 93 -205 102 -205 8 0
266 132 345 176 l42 24 -43 90 c-24 50 -45 92 -47 94 -2 2 -93 -35 -201 -83z"/>
<path d="M6083 1865 c-29 -45 -53 -86 -53 -91 1 -10 -6 -6 203 -147 l157 -108
60 93 c33 51 60 98 60 103 0 7 -338 218 -370 230 -3 2 -29 -35 -57 -80z"/>
<path d="M690 1814 c-96 -58 -179 -109 -183 -114 -8 -7 108 -200 120 -200 4 0
341 227 356 240 9 8 -98 180 -111 180 -4 -1 -86 -48 -182 -106z"/>
<path d="M5836 1528 c-67 -79 -68 -82 -49 -97 10 -9 83 -72 162 -141 79 -69
146 -126 151 -128 7 -3 124 129 141 159 7 14 -23 42 -160 153 -92 75 -170 136
-172 136 -2 0 -35 -37 -73 -82z"/>
<path d="M940 1456 c-90 -74 -166 -139 -168 -144 -1 -5 32 -48 74 -96 l76 -87
81 78 c45 43 117 109 160 147 42 38 77 73 77 78 0 9 -121 156 -130 157 -3 0
-79 -60 -170 -133z"/>
<path d="M5556 1237 l-79 -72 68 -79 c37 -44 72 -85 79 -92 7 -6 41 -46 76
-87 73 -87 57 -88 171 16 l73 67 -85 88 c-47 48 -116 120 -155 159 l-69 73
-79 -73z"/>
<path d="M1231 1130 l-152 -160 58 -53 c32 -30 72 -66 89 -80 l30 -25 129 150
c169 197 163 187 137 207 -11 9 -47 40 -80 68 l-59 53 -152 -160z"/>
<path d="M5235 983 c-44 -31 -80 -59 -80 -64 0 -16 230 -358 241 -358 14 -1
177 111 180 124 4 12 -236 347 -251 351 -5 2 -46 -22 -90 -53z"/>
<path d="M1567 849 c-71 -99 -127 -182 -125 -184 12 -12 183 -125 189 -125 7
0 225 338 234 363 3 7 -21 29 -53 49 -31 20 -70 45 -87 57 l-30 20 -128 -180z"/>
<path d="M4885 775 c-44 -24 -81 -48 -83 -53 -3 -10 163 -369 178 -385 8 -9
210 88 210 100 0 3 -21 45 -47 92 -102 185 -114 207 -135 249 -12 23 -27 41
-32 41 -6 -1 -47 -21 -91 -44z"/>
<path d="M2027 787 c-25 -40 -187 -356 -187 -365 0 -9 197 -108 204 -101 8 8
187 391 184 394 -2 1 -45 23 -95 49 l-93 46 -13 -23z"/>
<path d="M4508 613 c-55 -20 -95 -40 -93 -47 31 -100 129 -393 135 -399 5 -6
206 56 218 68 1 1 -15 49 -37 106 -21 57 -57 150 -78 206 -21 57 -40 103 -43
102 -3 0 -49 -16 -102 -36z"/>
<path d="M2405 623 c-31 -78 -145 -387 -145 -394 0 -8 219 -84 224 -78 1 2 17
51 34 109 17 58 44 152 62 209 17 57 30 104 28 105 -2 0 -39 13 -83 28 -44 15
-87 29 -96 33 -11 4 -19 0 -24 -12z"/>
<path d="M4120 506 c-52 -10 -97 -21 -99 -22 -4 -4 69 -427 75 -433 4 -4 213
37 225 45 7 4 -90 416 -100 425 -3 3 -49 -4 -101 -15z"/>
<path d="M2770 383 c-17 -76 -40 -172 -50 -213 -11 -41 -17 -77 -14 -79 9 -10
219 -49 225 -42 8 8 80 423 75 429 -3 3 -190 42 -202 42 -1 0 -16 -62 -34
-137z"/>
<path d="M3204 445 c-8 -20 -40 -427 -34 -430 3 -2 56 -7 118 -11 l112 -7 0
49 c1 27 5 126 10 219 4 94 7 172 5 173 -10 10 -208 16 -211 7z"/>
<path d="M3720 453 c-36 -2 -76 -6 -88 -8 -26 -6 -26 14 -6 -343 l6 -104 112
7 c61 4 114 10 118 14 4 3 -4 103 -17 221 -14 118 -25 216 -25 218 0 1 -8 1
-17 0 -10 -1 -47 -3 -83 -5z"/>
</g>
</svg>
