<?xml version="1.0" standalone="no"?>
<!DOCTYPE svg PUBLIC "-//W3C//DTD SVG 20010904//EN"
 "http://www.w3.org/TR/2001/REC-SVG-20010904/DTD/svg10.dtd">
<svg version="1.0" xmlns="http://www.w3.org/2000/svg"
 width="600.000000pt" height="600.000000pt" viewBox="0 0 600.000000 600.000000"
 preserveAspectRatio="xMidYMid meet">
<metadata>
Created by potrace 1.11, written by Peter Selinger 2001-2013
</metadata>
<g transform="translate(0.000000,600.000000) scale(0.100000,-0.100000)"
fill="#000000" stroke="none">
<path d="M4329 5905 c-2 -2 -26 -6 -54 -9 -106 -12 -333 -86 -376 -122 -8 -8
-19 -14 -23 -14 -4 0 -43 -24 -86 -54 l-78 -54 -59 14 c-163 37 -459 57 -588
40 -16 -2 -59 -8 -95 -12 -36 -4 -67 -8 -70 -9 -3 -1 -25 -5 -50 -9 -122 -21
-290 -76 -402 -132 -475 -237 -699 -676 -582 -1139 77 -305 348 -545 828 -734
120 -47 122 -48 411 -149 319 -111 473 -173 645 -260 365 -186 562 -405 631
-702 16 -69 21 -116 22 -225 2 -243 -95 -471 -272 -638 -66 -61 -153 -127
-171 -127 -4 0 -10 -4 -12 -9 -1 -4 -12 -11 -23 -15 -15 -4 -21 -1 -21 12 -1
43 -16 207 -20 213 -2 4 -6 24 -10 45 -9 59 -58 222 -88 294 -195 464 -621
806 -1131 908 -149 30 -187 34 -340 37 -201 3 -358 -19 -515 -73 -435 -151
-709 -491 -708 -878 1 -420 302 -775 818 -967 93 -34 218 -71 273 -81 15 -3
35 -7 45 -10 26 -8 207 -34 297 -43 144 -13 538 -7 645 11 14 3 50 7 80 11 30
3 102 14 160 24 58 10 106 17 108 16 2 -2 -15 -41 -37 -89 -110 -238 -281
-424 -478 -520 -90 -44 -125 -89 -125 -162 0 -51 18 -83 66 -118 39 -29 146
-28 199 2 20 12 53 31 73 42 156 89 351 294 468 493 75 128 147 302 176 424 6
29 17 53 23 53 5 0 55 23 111 51 369 187 612 473 697 824 31 126 35 359 9 502
-60 327 -223 577 -510 783 -241 172 -431 261 -980 457 -459 164 -730 296 -866
422 -248 229 -249 597 -4 863 166 180 408 291 715 326 118 13 338 6 421 -14
20 -5 20 -7 -12 -67 -98 -186 -124 -464 -59 -650 64 -184 206 -326 382 -383
66 -21 208 -26 269 -10 191 53 328 208 359 407 43 270 -86 570 -322 749 l-64
49 43 25 c99 58 217 90 373 101 92 6 141 27 171 72 37 55 15 139 -49 187 -24
18 -44 21 -131 23 -57 1 -105 0 -107 -2z m-469 -640 c172 -132 262 -317 246
-505 -11 -122 -74 -191 -171 -185 -103 6 -199 101 -239 235 -26 87 -13 251 29
370 16 47 62 130 71 130 3 0 32 -20 64 -45z m-1335 -2525 c347 -57 621 -207
804 -440 93 -118 154 -230 200 -369 26 -76 34 -110 56 -226 4 -16 9 -94 12
-172 l6 -142 -44 -12 c-24 -7 -48 -14 -54 -15 -34 -10 -258 -53 -295 -58 -84
-10 -155 -17 -220 -21 -81 -6 -350 -6 -410 0 -343 32 -614 117 -834 263 -38
25 -101 77 -140 116 -204 202 -254 452 -137 683 103 204 369 366 656 400 28 3
51 7 53 8 8 7 285 -4 347 -15z"/>
</g>
</svg>
